<svg xmlns="http://www.w3.org/2000/svg" xmlns:xlink="http://www.w3.org/1999/xlink" width="16" height="16" viewBox="0 0 16 16"><defs><linearGradient id="a"><stop offset="0" stop-color="#fcd635"/><stop offset="1" stop-color="#f7a928"/></linearGradient><linearGradient id="e" x1="124.5" x2="134.5" y1="137" y2="137" gradientUnits="userSpaceOnUse" xlink:href="#a"/><linearGradient id="f" x1="128.2" x2="129.2" y1="1180.362" y2="1180.362" gradientUnits="userSpaceOnUse" xlink:href="#b"/><linearGradient id="b"><stop offset="0" stop-color="#cad1d8"/><stop offset="1" stop-color="#babdc1"/></linearGradient><linearGradient id="g" x1="129.8" x2="130.8" y1="1180.362" y2="1180.362" gradientUnits="userSpaceOnUse" xlink:href="#b"/><linearGradient id="h" x1="127.5" x2="131.5" y1="1178.362" y2="1178.362" gradientUnits="userSpaceOnUse" xlink:href="#c"/><linearGradient id="c"><stop offset="0" stop-color="#485960"/><stop offset="1" stop-color="#3d4e55"/></linearGradient><linearGradient id="i" x1="127" x2="132" y1="1177.862" y2="1177.862" gradientUnits="userSpaceOnUse" xlink:href="#b"/><linearGradient id="j" x1="127" x2="132" y1="1178.862" y2="1178.862" gradientUnits="userSpaceOnUse" xlink:href="#b"/><linearGradient id="k" x1="127" x2="132" y1="1176.862" y2="1176.862" gradientUnits="userSpaceOnUse" xlink:href="#b"/><linearGradient id="l" x1="125.5" x2="130.007" y1="1169.615" y2="1169.615" gradientUnits="userSpaceOnUse" xlink:href="#d"/><linearGradient id="d"><stop offset="0" stop-color="#f6a320"/><stop offset="1" stop-color="#f47e1f"/></linearGradient></defs><g transform="translate(-121.5 -1164.862)"><path fill="url(#e)" fill-rule="evenodd" d="m 129.5,130 a 5.0000072,5.0000072 0 0 0 -5,5 5.0000072,5.0000072 0 0 0 3,4.58008 l 0,3.91992 c 0,0.277 0.223,0.5 0.5,0.5 l 3,0 c 0.277,0 0.5,-0.223 0.5,-0.5 l 0,-3.92383 a 5.0000072,5.0000072 0 0 0 3,-4.57617 5.0000072,5.0000072 0 0 0 -5,-5 z" color="#000" enable-background="accumulate" overflow="visible" transform="translate(0 1036.362)" style="isolation:auto;mix-blend-mode:normal;solid-color:#000;solid-opacity:1"/><circle cx="128.7" cy="1180.362" r=".5" style="isolation:auto;mix-blend-mode:normal;solid-color:#000;solid-opacity:1" fill="url(#f)" fill-rule="evenodd" color="#000" enable-background="accumulate" overflow="visible"/><circle style="isolation:auto;mix-blend-mode:normal;solid-color:#000;solid-opacity:1" cx="130.3" cy="1180.362" r=".5" fill="url(#g)" fill-rule="evenodd" color="#000" enable-background="accumulate" overflow="visible"/><rect style="isolation:auto;mix-blend-mode:normal;solid-color:#000;solid-opacity:1" width="4" height="3" x="127.5" y="1177.362" fill="url(#h)" fill-rule="evenodd" color="#000" enable-background="accumulate" overflow="visible" rx=".5" ry=".5"/><rect width="5" height="1" x="127" y="1177.362" fill="url(#i)" fill-rule="evenodd" color="#000" enable-background="accumulate" overflow="visible" rx=".417" ry=".5" style="isolation:auto;mix-blend-mode:normal;solid-color:#000;solid-opacity:1"/><rect style="isolation:auto;mix-blend-mode:normal;solid-color:#000;solid-opacity:1" width="5" height="1" x="127" y="1178.362" fill="url(#j)" fill-rule="evenodd" color="#000" enable-background="accumulate" overflow="visible" rx=".417" ry=".5"/><rect style="isolation:auto;mix-blend-mode:normal;solid-color:#000;solid-opacity:1" width="5" height="1" x="127" y="1176.362" fill="url(#k)" fill-rule="evenodd" color="#000" enable-background="accumulate" overflow="visible" rx=".417" ry=".5"/><path d="m 129.5,1167.3613 c -2.20322,0 -4,1.7968 -4,4 a 0.50005,0.50005 0 1 0 1,0 c 0,-1.6627 1.33722,-3 3,-3 a 0.50005,0.50005 0 1 0 0,-1 z" style="line-height:normal;text-indent:0;text-align:start;text-decoration-line:none;text-decoration-style:solid;text-decoration-color:#000;text-transform:none;block-progression:tb;white-space:normal;isolation:auto;mix-blend-mode:normal;solid-color:#000;solid-opacity:1" fill="url(#l)" fill-rule="evenodd" color="#000" enable-background="accumulate" font-family="sans-serif" font-weight="400" overflow="visible"/></g></svg>